<svg width="516" height="113" viewBox="0 0 516 113" fill="none" xmlns="http://www.w3.org/2000/svg">
<path d="M238 0H196C176.673 0 161 15.673 161 35V77C161 96.327 176.673 112 196 112H238C257.327 112 273 96.327 273 77V35C273 15.673 257.327 0 238 0ZM262.5 77C262.5 90.51 251.51 101.5 238 101.5H196C182.49 101.5 171.5 90.51 171.5 77V35C171.5 21.49 182.49 10.5 196 10.5H238C251.51 10.5 262.5 21.49 262.5 35V77Z" fill="url(#paint0_linear)"/>
<path d="M217 28C201.537 28 189 40.537 189 56C189 71.463 201.537 84 217 84C232.463 84 245 71.463 245 56C245 40.537 232.463 28 217 28ZM217 73.5C207.354 73.5 199.5 65.646 199.5 56C199.5 46.347 207.354 38.5 217 38.5C226.646 38.5 234.5 46.347 234.5 56C234.5 65.646 226.646 73.5 217 73.5Z" fill="url(#paint1_linear)"/>
<path d="M247.1 29.631C249.161 29.631 250.831 27.9606 250.831 25.9C250.831 23.8394 249.161 22.169 247.1 22.169C245.039 22.169 243.369 23.8394 243.369 25.9C243.369 27.9606 245.039 29.631 247.1 29.631Z" fill="url(#paint2_linear)"/>
<path d="M27.4688 61.625L20.1562 69.5V89H6.09375V20.75H20.1562V51.6875L26.3438 43.2031L43.7344 20.75H61.0312L36.7969 51.0781L61.7344 89H45L27.4688 61.625ZM85.4062 20.75L102.938 70.25L120.375 20.75H138.844V89H124.734V70.3438L126.141 38.1406L107.719 89H98.0625L79.6875 38.1875L81.0938 70.3438V89H67.0312V20.75H85.4062Z" fill="white"/>
<path d="M329.484 71.0938C329.484 68.4375 328.547 66.4062 326.672 65C324.797 63.5625 321.422 62.0625 316.547 60.5C311.672 58.9062 307.812 57.3438 304.969 55.8125C297.219 51.625 293.344 45.9844 293.344 38.8906C293.344 35.2031 294.375 31.9219 296.438 29.0469C298.531 26.1406 301.516 23.875 305.391 22.25C309.297 20.625 313.672 19.8125 318.516 19.8125C323.391 19.8125 327.734 20.7031 331.547 22.4844C335.359 24.2344 338.312 26.7187 340.406 29.9375C342.531 33.1562 343.594 36.8125 343.594 40.9062H329.531C329.531 37.7812 328.547 35.3594 326.578 33.6406C324.609 31.8906 321.844 31.0156 318.281 31.0156C314.844 31.0156 312.172 31.75 310.266 33.2188C308.359 34.6562 307.406 36.5625 307.406 38.9375C307.406 41.1562 308.516 43.0156 310.734 44.5156C312.984 46.0156 316.281 47.4219 320.625 48.7344C328.625 51.1406 334.453 54.125 338.109 57.6875C341.766 61.25 343.594 65.6875 343.594 71C343.594 76.9062 341.359 81.5469 336.891 84.9219C332.422 88.2656 326.406 89.9375 318.844 89.9375C313.594 89.9375 308.812 88.9844 304.5 87.0781C300.188 85.1406 296.891 82.5 294.609 79.1562C292.359 75.8125 291.234 71.9375 291.234 67.5312H305.344C305.344 75.0625 309.844 78.8281 318.844 78.8281C322.188 78.8281 324.797 78.1562 326.672 76.8125C328.547 75.4375 329.484 73.5312 329.484 71.0938ZM371.531 20.75L389.062 70.25L406.5 20.75H424.969V89H410.859V70.3438L412.266 38.1406L393.844 89H384.188L365.812 38.1875L367.219 70.3438V89H353.156V20.75H371.531ZM455.625 20.75L473.156 70.25L490.594 20.75H509.062V89H494.953V70.3438L496.359 38.1406L477.938 89H468.281L449.906 38.1875L451.312 70.3438V89H437.25V20.75H455.625Z" fill="white"/>
<defs>
<linearGradient id="paint0_linear" x1="171.253" y1="101.748" x2="262.747" y2="10.2518" gradientUnits="userSpaceOnUse">
<stop stop-color="#FFC107"/>
<stop offset="0.507" stop-color="#F44336"/>
<stop offset="0.99" stop-color="#9C27B0"/>
</linearGradient>
<linearGradient id="paint1_linear" x1="197.202" y1="75.7984" x2="236.798" y2="36.2015" gradientUnits="userSpaceOnUse">
<stop stop-color="#FFC107"/>
<stop offset="0.507" stop-color="#F44336"/>
<stop offset="0.99" stop-color="#9C27B0"/>
</linearGradient>
<linearGradient id="paint2_linear" x1="244.462" y1="28.5386" x2="249.738" y2="23.2621" gradientUnits="userSpaceOnUse">
<stop stop-color="#FFC107"/>
<stop offset="0.507" stop-color="#F44336"/>
<stop offset="0.99" stop-color="#9C27B0"/>
</linearGradient>
</defs>
</svg>
