<svg height="512" width="512" xmlns="http://www.w3.org/2000/svg"><linearGradient id="a" gradientUnits="userSpaceOnUse" x1="256" x2="256" y1="512" y2="0"><stop offset="0" stop-color="#ffedad"/><stop offset="1" stop-color="#ffffe5"/></linearGradient><linearGradient id="b" gradientUnits="userSpaceOnUse" x1="256" x2="256" y1="407" y2="105"><stop offset="0" stop-color="#ffde00"/><stop offset="1" stop-color="#fd5900"/></linearGradient><circle cx="256" cy="256" fill="url(#a)" r="256"/><path d="M291.537 353.706a26.593 26.593 0 01-22.18-11.866L256 321.804l-13.358 20.036c-5.014 7.451-13.297 11.866-22.197 11.866-4.112 0-8.223-.98-11.901-2.819l-68.014-34.003v27.94c0 3.365 1.9 6.436 4.91 7.946l106.587 53.294c1.249.625 2.611.937 3.973.937s2.724-.312 3.973-.937L366.56 352.77a8.886 8.886 0 004.91-7.946v-27.943l-68.022 34.015a26.778 26.778 0 01-11.911 2.81zM256 273.766l106.587-53.293L256 167.178l-106.587 53.294zm149.506-101.661a8.88 8.88 0 00-3.418-12.872l-106.587-53.294c-4.016-2.004-8.874-.694-11.363 3.019l-26.213 39.32 122.6 61.303zm-274.032 37.476l122.6-61.303-26.213-39.32c-2.498-3.73-7.365-5.022-11.363-3.019L109.91 159.233a8.886 8.886 0 00-4.615 5.664 8.89 8.89 0 001.197 7.208zm249.051 21.783l-122.6 61.303 26.213 39.32a8.878 8.878 0 0011.363 3.018l106.587-53.294a8.886 8.886 0 004.615-5.664 8.89 8.89 0 00-1.197-7.208zM227.861 331.986l26.213-39.32-122.6-61.303-24.981 37.475a8.88 8.88 0 003.418 12.872l106.587 53.294c3.998 2.005 8.865.695 11.363-3.018z" fill="url(#b)"/></svg>