<svg height="512" width="512" xmlns="http://www.w3.org/2000/svg"><linearGradient id="a" gradientUnits="userSpaceOnUse" x1="256" x2="256" y1="512" y2="0"><stop offset="0" stop-color="#ffedad"/><stop offset="1" stop-color="#ffffe5"/></linearGradient><linearGradient id="b" gradientUnits="userSpaceOnUse" x1="256" x2="256" y1="407" y2="105"><stop offset="0" stop-color="#ffde00"/><stop offset="1" stop-color="#fd5900"/></linearGradient><circle cx="256" cy="256" fill="url(#a)" r="256"/><path d="M256 105c-83.263 0-151 67.737-151 151s67.737 151 151 151 151-67.737 151-151-67.737-151-151-151zm44.412 195.412c0 17.161-15.283 31.51-35.529 34.811v9.601c0 4.91-3.973 8.882-8.882 8.882s-8.882-3.973-8.882-8.882v-9.601c-20.247-3.3-35.529-17.65-35.529-34.811a8.877 8.877 0 018.882-8.882 8.877 8.877 0 018.882 8.882c0 7.554 7.553 14.127 17.765 16.635v-56.513c-17.38-12.546-35.529-26.987-35.529-48.945 0-17.161 15.283-31.51 35.529-34.81v-9.601c0-4.91 3.973-8.882 8.882-8.882s8.882 3.973 8.882 8.882v9.601c20.247 3.3 35.529 17.65 35.529 34.81a8.878 8.878 0 01-8.882 8.883 8.877 8.877 0 01-8.882-8.883c0-7.554-7.553-14.127-17.765-16.635v56.513c17.379 12.546 35.529 26.987 35.529 48.945zm-71.059-88.824c0 10.064 7.622 18.501 17.765 26.681v-43.316c-10.212 2.508-17.765 9.081-17.765 16.635zm35.529 105.459c10.212-2.508 17.765-9.081 17.765-16.635 0-10.064-7.622-18.501-17.765-26.681z" fill="url(#b)"/></svg>