<svg height="512" width="512" xmlns="http://www.w3.org/2000/svg"><linearGradient id="a" gradientUnits="userSpaceOnUse" x1="256" x2="256" y1="512" y2="0"><stop offset="0" stop-color="#ffedad"/><stop offset="1" stop-color="#ffffe5"/></linearGradient><linearGradient id="b" gradientUnits="userSpaceOnUse" x1="256" x2="256" y1="410.106" y2="99.174"><stop offset="0" stop-color="#feba00"/><stop offset="1" stop-color="#fd5900"/></linearGradient><circle cx="256" cy="256" fill="url(#a)" r="256"/><g fill="url(#b)"><path d="M256 336.947c41.598 0 75.958-31.532 80.447-71.953H175.553c4.489 40.421 38.849 71.953 80.447 71.953z"/><path d="M256 102.5c-84.311 0-153.5 69.189-153.5 153.5S171.689 409.5 256 409.5 409.5 340.311 409.5 256 340.311 102.5 256 102.5zm53.965 72.553c14.879 0 26.982 12.103 26.982 26.982 0 4.971-4.023 8.994-8.994 8.994s-8.994-4.023-8.994-8.994c0-4.963-4.032-8.994-8.994-8.994s-8.994 4.032-8.994 8.994c0 4.971-4.023 8.994-8.994 8.994s-8.994-4.023-8.994-8.994c-.001-14.879 12.103-26.982 26.982-26.982zm-107.93 0c14.879 0 26.982 12.103 26.982 26.982 0 4.971-4.023 8.994-8.994 8.994s-8.994-4.023-8.994-8.994c0-4.963-4.032-8.994-8.994-8.994s-8.994 4.032-8.994 8.994c0 4.971-4.023 8.994-8.994 8.994s-8.994-4.023-8.994-8.994c0-14.879 12.103-26.982 26.982-26.982zM256 354.936c-54.553 0-98.936-44.382-98.936-98.936a8.99 8.99 0 018.994-8.994h179.883a8.99 8.99 0 018.994 8.994c.001 54.553-44.382 98.936-98.935 98.936z"/></g></svg>