<svg width="516" height="113" fill="none" xmlns="http://www.w3.org/2000/svg"><path d="M238 0h-42c-19.327 0-35 15.673-35 35v42c0 19.327 15.673 35 35 35h42c19.327 0 35-15.673 35-35V35c0-19.327-15.673-35-35-35zm24.5 77c0 13.51-10.99 24.5-24.5 24.5h-42c-13.51 0-24.5-10.99-24.5-24.5V35c0-13.51 10.99-24.5 24.5-24.5h42c13.51 0 24.5 10.99 24.5 24.5v42z" fill="url(#paint0_linear)"/><path d="M217 28c-15.463 0-28 12.537-28 28s12.537 28 28 28 28-12.537 28-28-12.537-28-28-28zm0 45.5c-9.646 0-17.5-7.854-17.5-17.5 0-9.653 7.854-17.5 17.5-17.5s17.5 7.847 17.5 17.5c0 9.646-7.854 17.5-17.5 17.5z" fill="url(#paint1_linear)"/><path d="M247.1 29.631a3.73 3.73 0 100-7.461 3.73 3.73 0 000 7.461z" fill="url(#paint2_linear)"/><path d="M27.469 61.625L20.156 69.5V89H6.094V20.75h14.062v30.938l6.188-8.485 17.39-22.453h17.297L36.797 51.078 61.734 89H45L27.469 61.625zM85.406 20.75l17.532 49.5 17.437-49.5h18.469V89h-14.11V70.344l1.407-32.203L107.719 89h-9.656L79.686 38.187l1.407 32.157V89H67.03V20.75h18.375zm244.078 50.344c0-2.656-.937-4.688-2.812-6.094-1.875-1.438-5.25-2.938-10.125-4.5-4.875-1.594-8.735-3.156-11.578-4.688-7.75-4.187-11.625-9.828-11.625-16.921 0-3.688 1.031-6.97 3.094-9.844 2.093-2.906 5.078-5.172 8.953-6.797 3.906-1.625 8.281-2.438 13.125-2.438 4.875 0 9.218.891 13.031 2.672 3.812 1.75 6.765 4.235 8.859 7.453 2.125 3.22 3.188 6.875 3.188 10.97h-14.063c0-3.126-.984-5.548-2.953-7.266-1.969-1.75-4.734-2.625-8.297-2.625-3.437 0-6.109.734-8.015 2.203-1.907 1.437-2.86 3.343-2.86 5.718 0 2.22 1.11 4.079 3.328 5.579 2.25 1.5 5.547 2.906 9.891 4.218 8 2.407 13.828 5.391 17.484 8.953 3.657 3.563 5.485 8 5.485 13.313 0 5.906-2.235 10.547-6.703 13.922-4.469 3.344-10.485 5.016-18.047 5.016-5.25 0-10.032-.954-14.344-2.86-4.312-1.937-7.609-4.578-9.891-7.922-2.25-3.344-3.375-7.219-3.375-11.625h14.11c0 7.531 4.5 11.297 13.5 11.297 3.344 0 5.953-.672 7.828-2.016 1.875-1.374 2.812-3.28 2.812-5.718zm42.047-50.344l17.531 49.5 17.438-49.5h18.469V89h-14.11V70.344l1.407-32.203L393.844 89h-9.656l-18.376-50.813 1.407 32.157V89h-14.063V20.75h18.375zm84.094 0l17.531 49.5 17.438-49.5h18.468V89h-14.109V70.344l1.406-32.203L477.938 89h-9.657l-18.375-50.813 1.406 32.157V89H437.25V20.75h18.375z" fill="#fff"/><defs><linearGradient id="paint0_linear" x1="171.253" y1="101.748" x2="262.747" y2="10.252" gradientUnits="userSpaceOnUse"><stop stop-color="#FFC107"/><stop offset=".507" stop-color="#F44336"/><stop offset=".99" stop-color="#9C27B0"/></linearGradient><linearGradient id="paint1_linear" x1="197.202" y1="75.798" x2="236.798" y2="36.202" gradientUnits="userSpaceOnUse"><stop stop-color="#FFC107"/><stop offset=".507" stop-color="#F44336"/><stop offset=".99" stop-color="#9C27B0"/></linearGradient><linearGradient id="paint2_linear" x1="244.462" y1="28.539" x2="249.738" y2="23.262" gradientUnits="userSpaceOnUse"><stop stop-color="#FFC107"/><stop offset=".507" stop-color="#F44336"/><stop offset=".99" stop-color="#9C27B0"/></linearGradient></defs></svg>