<svg xmlns="http://www.w3.org/2000/svg" viewBox="0 0 511.997 511.997"><g fill="#d32144"><path d="M503.233 237.14c10.431 8.823 11.74 24.438 2.909 34.877a25.29 25.29 0 01-2.909 2.909h-.088c-9.666 8.076-11.678 22.144-4.657 32.601 7.557 11.362 4.464 26.696-6.889 34.245a24.118 24.118 0 01-3.743 2.047 24.691 24.691 0 00-14.763 22.584c0 2.469.352 4.93 1.054 7.294v.088c4.042 12.97-3.207 26.767-16.178 30.809a23.811 23.811 0 01-4.209.914h-.088c-12.478 1.573-21.767 12.294-21.529 24.868v.088c.228 13.585-10.606 24.781-24.192 25.009a24.29 24.29 0 01-4.367-.316 28.45 28.45 0 00-3.866-.264c-11.116-.035-20.879 7.381-23.814 18.102-2.935 10.721-12.698 18.137-23.814 18.102a24.319 24.319 0 01-10.633-2.373 24.25 24.25 0 00-10.633-2.46 24.556 24.556 0 00-20.914 11.687v.088c-7.206 11.555-22.408 15.088-33.972 7.882a24.485 24.485 0 01-3.462-2.61c-9.411-8.322-23.542-8.322-32.953 0-10.141 9.113-25.747 8.287-34.86-1.854a24.368 24.368 0 01-2.575-3.418v-.088c-6.599-10.703-20.22-14.693-31.547-9.227h-.088c-12.258 5.861-26.951.685-32.812-11.573a24.192 24.192 0 01-1.547-4.156c-2.917-10.712-12.628-18.146-23.726-18.19a29.56 29.56 0 00-3.954.352 29.894 29.894 0 01-3.954.352c-13.621-.035-24.64-11.099-24.605-24.728v-.404c.237-12.575-9.051-23.296-21.529-24.868h-.088c-13.48-1.714-23.014-14.034-21.301-27.513.185-1.424.492-2.838.914-4.209v-.088c3.691-11.995-2.206-24.851-13.708-29.877-12.487-5.492-18.164-20.062-12.68-32.549a24.576 24.576 0 012.047-3.743c7.083-10.439 5.062-24.561-4.657-32.601h-.089c-10.431-8.823-11.74-24.438-2.909-34.877a25.29 25.29 0 012.909-2.909l.088-.088c9.675-8.032 11.687-22.092 4.657-32.514v-.088c-7.54-11.309-4.49-26.582 6.819-34.122a24.349 24.349 0 013.814-2.083 24.805 24.805 0 0014.851-22.584c.009-2.504-.378-5-1.142-7.381a23.873 23.873 0 01-1.142-7.381c0-12.434 9.271-22.918 21.617-24.429 12.276-1.547 21.494-11.968 21.529-24.341v-.967c-.026-13.586 10.967-24.623 24.552-24.658 1.344 0 2.689.105 4.007.316 1.309.202 2.627.325 3.954.351 11.107-.009 20.826-7.469 23.726-18.19a24.803 24.803 0 0123.902-18.102 23.942 23.942 0 0110.545 2.373v.088c11.353 5.387 24.939 1.38 31.547-9.315A24.6 24.6 0 01223.09 2.341a24.326 24.326 0 0116.433 6.327c9.359 8.445 23.594 8.445 32.953 0a24.321 24.321 0 0116.432-6.327c8.559-.018 16.512 4.403 21.002 11.687s12.443 11.705 21.002 11.687a25.146 25.146 0 0010.545-2.373l.088-.088c12.311-5.844 27.03-.589 32.865 11.722a24.991 24.991 0 011.494 4.007c2.917 10.712 12.628 18.146 23.726 18.19a29.724 29.724 0 003.954-.351 31.066 31.066 0 014.042-.351c13.621.079 24.605 11.186 24.517 24.807v.676c-.026 12.425 9.2 22.935 21.529 24.517h.088c13.48 1.705 23.032 14.007 21.336 27.487a24.373 24.373 0 01-.949 4.323 26.261 26.261 0 00-1.054 7.294 24.705 24.705 0 0014.763 22.672c12.487 5.492 18.164 20.062 12.68 32.549a24.576 24.576 0 01-2.047 3.743c-7.083 10.413-5.062 24.508 4.657 32.514l.087.087zm-52.725 20.035c0-106.767-86.556-193.324-193.324-193.324S63.861 150.408 63.861 257.175s86.556 193.324 193.324 193.324 193.323-86.548 193.323-193.324z"/><path d="M229.856 239.161l9.315 26.977h-28.823l8.963-25.835a143.832 143.832 0 005.272-18.19c.439 1.845 1.318 4.657 2.46 8.524 1.143 3.867 2.198 6.767 2.813 8.524z"/></g><path d="M341.544 307.527v-13.884h-41.828v-85.062h-16.169v98.947l57.997-.001zm17.048-98.946v98.947h55.976V293.82h-39.807v-31.108h37.259v-13.533h-37.259v-26.89h39.807v-13.708h-55.976zm-185.767 72.057a26.262 26.262 0 00-2.373-11.599 24.324 24.324 0 00-7.469-8.875 69.621 69.621 0 00-15.993-8.436 101.214 101.214 0 01-13.357-6.415 17.956 17.956 0 01-5.36-5.185 13.085 13.085 0 01-1.582-6.591 11.158 11.158 0 014.042-9.051 18.02 18.02 0 0111.863-3.427 61.649 61.649 0 0123.55 5.536l5.185-13.181a69.885 69.885 0 00-28.296-6.239 36.661 36.661 0 00-23.638 7.118 23.91 23.91 0 00-8.787 19.508 26.366 26.366 0 005.536 16.872 46.011 46.011 0 0019.069 12.566 59.583 59.583 0 0117.311 9.139 12.13 12.13 0 014.218 9.403 11.841 11.841 0 01-4.569 9.754 22.18 22.18 0 01-14.148 3.691 59.587 59.587 0 01-14.148-1.845 78.197 78.197 0 01-14.411-5.009v15.29a63.456 63.456 0 0027.505 5.185 41.33 41.33 0 0026.274-7.469 24.85 24.85 0 009.578-20.74zm43.059-72.409l-36.995 99.298h17.048l9.666-27.505h37.786l9.93 27.505h17.135l-36.995-99.298h-17.575zm41.301-144.377c106.767 0 193.324 86.556 193.324 193.324S363.953 450.5 257.185 450.5 63.861 363.943 63.861 257.175 150.417 63.852 257.185 63.852z" fill="#e92a40"/><path d="M374.761 293.819h39.807v13.708h-55.976v-98.946h55.976v13.708h-39.807v26.89h37.258v13.532h-37.258zm-33.217-.176v13.884h-57.997v-98.946h16.169v85.062zm-102.373-27.505l-9.315-26.977c-.615-1.757-1.582-4.657-2.812-8.524-1.23-3.866-2.021-6.678-2.46-8.524a143.998 143.998 0 01-5.272 18.19l-8.963 25.835h28.822zm-5.712-57.909l36.995 99.298h-17.136l-9.93-27.505h-37.786l-9.666 27.505h-17.048l36.995-99.298h17.576zm-102.725 16.257a11.158 11.158 0 00-4.042 9.051 13.067 13.067 0 001.582 6.591 17.956 17.956 0 005.36 5.185 101.34 101.34 0 0013.357 6.415 69.6 69.6 0 0115.993 8.436 24.324 24.324 0 017.469 8.875 26.262 26.262 0 012.373 11.599 24.847 24.847 0 01-9.578 20.738 41.326 41.326 0 01-26.274 7.469 63.43 63.43 0 01-27.505-5.185v-15.29a78.197 78.197 0 0014.411 5.009 59.587 59.587 0 0014.148 1.845c5 .404 9.983-.896 14.148-3.691a11.838 11.838 0 004.569-9.754 12.128 12.128 0 00-4.218-9.403 59.595 59.595 0 00-17.311-9.139 46.011 46.011 0 01-19.069-12.566 26.364 26.364 0 01-5.536-16.872 23.913 23.913 0 018.787-19.508 36.667 36.667 0 0123.638-7.118 69.885 69.885 0 0128.296 6.239l-5.185 13.181a61.653 61.653 0 00-23.55-5.536 18.046 18.046 0 00-11.863 3.429z" fill="#ebebeb"/></svg>