<svg height="512" width="512" xmlns="http://www.w3.org/2000/svg" xmlns:xlink="http://www.w3.org/1999/xlink"><linearGradient id="b" gradientUnits="userSpaceOnUse" x1="256" x2="256" y1="512" y2="0"><stop offset="0" stop-color="#ffedad"/><stop offset="1" stop-color="#ffffe5"/></linearGradient><linearGradient id="a"><stop offset="0" stop-color="#feba00"/><stop offset="1" stop-color="#fd5900"/></linearGradient><linearGradient id="c" gradientUnits="userSpaceOnUse" x1="256" x2="256" xlink:href="#a" y1="409.441" y2="98.227"/><linearGradient id="d" gradientUnits="userSpaceOnUse" x1="256" x2="256" xlink:href="#a" y1="409.5" y2="98.286"/><circle cx="256" cy="256" fill="url(#b)" r="256"/><path d="M327.953 175.053c0-39.674-32.279-72.553-71.953-72.553s-71.953 32.878-71.953 72.553 32.279 71.953 71.953 71.953 71.953-32.279 71.953-71.953z" fill="url(#c)"/><path d="M121.088 400.506a8.99 8.99 0 008.994 8.994h251.836a8.99 8.99 0 008.994-8.994c0-74.395-60.517-135.512-134.912-135.512s-134.912 61.117-134.912 135.512z" fill="url(#d)"/></svg>